PathFileType	4	(X/Y/Z)	C:/Users/beibeiliu/ov580/test_trc/User2\sequence.22_training_dense_left.trc
DataRate	CameraRate	NumFrames	NumMarkers	Units	OrigDataRate	OrigDataStartFrame	OrigNumFrames
120	120	18	19	mm	120	92	364
Frame#	Time	ThumbCMC			ThumbMCP			ThumbIP			ThumbTip			IndexMCP			IndexPIP			IndexTip			MiddleMCP			MiddlePIP			MiddleTip			RingMCP			RingPIP			RingTip			PinkyMCP			PinkyPIP			PinkyTip			BackHand1			BackHand2			BackHand3	
		X0	Y0	Z0	X1	Y1	Z1	X2	Y2	Z2	X3	Y3	Z3	X4	Y4	Z4	X5	Y5	Z5	X6	Y6	Z6	X7	Y7	Z7	X8	Y8	Z8	X9	Y9	Z9	X10	Y10	Z10	X11	Y11	Z11	X12	Y12	Z12	X13	Y13	Z13	X14	Y14	Z14	X15	Y15	Z15	X16	Y16	Z16	X17	Y17	Z17	X18	Y18	Z18	
91	0.758333	-174.908	46.6903	89.553	-149.902	47.608	67.5497	-127.412	43.7759	41.1544	-111.349	40.1826	26.7153	-142.831	7.20269	19.4316	-114.361	-0.228163	26.9012	-111.882	11.8	60.9563	-145.264	-11.7444	24.1777	-108.279	-14.1451	40.5816	-119.142	-1.46742	76.2454	-143.743	-35.1985	30.5616	-116.306	-36.2517	43.1375	-123.534	-18.298	74.8817	-169.769	-47.3735	49.6928	-157.345	-60.8318	25.7007	-145.936	-70.9171	3.53908	-197.808	-17.4738	68.4405	-216.046	-10.9731	92.697	-201.281	19.2002	71.1682	
92	0.766667	-180.597	46.949	88.4519	-156.925	48.0862	68.1664	-133.938	47.297	37.1594	-116.711	44.3958	22.7948	-146.301	8.96048	22.11	-112.032	6.85811	26.9069	-110.957	17.3411	58.7779	-140.832	-13.4296	25.4529	-107.044	-9.44821	40.9658	-118.944	8.89935	76.2127	-138.998	-33.2186	34.4159	-109.883	-26.5571	47.1694	-119.708	-7.81273	74.4098	-162.232	-48.6967	49.5075	-148.405	-57.2419	27.8075	-134.023	-64.8661	4.72345	-193.732	-23.1944	70.7612	-215.113	-12.6571	96.1407	-204.334	13.5823	74.1363	
93	0.775	-186.575	45.5651	86.2129	-162.943	50.5516	61.4813	-141.502	51.896	38.274	-123.945	57.0694	20.6642	-147.468	13.8418	19.5452	-112.817	15.3058	23.8081	-112.299	30.7704	59.0703	-133.863	-6.73294	24.4185	-104.175	1.27297	40.0593	-119.375	14.5946	76.1532	-129.847	-28.2459	36.3259	-105.876	-17.3396	47.7758	-121.799	3.47267	75.9863	-153.685	-42.8477	50.0827	-138.199	-51.9686	29.0114	-123.075	-60.0509	7.68166	-190.428	-21.4137	68.7588	-209.781	-14.9913	93.9524	-205.852	11.7888	70.4005	
94	0.783333	-193.038	42.0343	84.5715	-170.862	55.433	58.9828	-148.068	56.2364	30.3317	-132.676	60.1086	17.8018	-143.917	16.5787	17.775	-113.578	20.7572	25.2936	-116.075	37.9472	55.7634	-131.67	-1.18765	24.1581	-103.182	14.2442	41.3463	-122.556	24.8176	76.9463	-125.478	-20.7935	38.2617	-102.763	-4.765	48.4493	-122.565	10.3595	79.588	-143.911	-38.916	52.431	-127.663	-49.2812	37.2128	-115.066	-55.5454	12.7486	-184.195	-21.6142	71.7829	-206.815	-21.1249	94.5083	-204.201	5.67259	70.0529	
95	0.791667	-197.999	39.9149	80.6981	-179.322	54.5246	57.6291	-157.616	55.2698	28.2621	-143.309	67.3739	12.9984	-143.257	16.7631	16.5183	-114.875	28.4726	26.2545	-125.736	44.1978	58.3988	-129.258	-1.13868	25.8143	-104.002	19.2032	37.0332	-123.915	31.3511	73.9326	-120.216	-15.9813	41.015	-100.574	2.47349	50.3009	-121.122	17.5712	76.7131	-136.088	-37.6292	58.9648	-115.855	-43.3166	35.4252	-105.597	-46.2757	15.555	-177.898	-26.9353	70.6894	-201.277	-22.1757	96.3495	-205.847	4.67126	65.8283	
96	0.8	-201.569	37.111	76.3804	-183.883	48.5078	52.5595	-164.518	58.0793	20.9752	-150.533	64.9449	6.42745	-146.993	17.1861	16.4355	-119.181	36.6332	21.4418	-131.67	49.6653	55.3589	-131.956	0.440335	26.9189	-104.703	23.9463	38.0569	-123.868	37.5721	69.3186	-119.872	-9.74757	38.7447	-100.741	13.2311	49.694	-123.504	23.7125	75.1338	-129.891	-32.5552	55.8782	-110.83	-36.0608	37.8457	-96.8612	-43.0814	21.3602	-173.241	-27.4515	73.1777	-196.519	-29.0671	95.7741	-205.354	1.53167	68.3969	
97	0.808333	-204.477	34.1618	76.2005	-189.288	48.1595	51.0948	-171.017	55.0454	24.1177	-157.166	64.5019	0.945037	-152.659	16.7049	14.1679	-123.013	39.4892	18.8589	-137.051	53.2102	50.5181	-131.51	0.832117	25.6788	-108.106	29.7146	34.1824	-128.864	42.9628	64.5731	-119.92	-7.63228	37.8512	-100.271	15.0751	47.8546	-123.687	27.8866	73.3815	-127.274	-29.5265	57.0987	-108.718	-31.9791	37.0093	-94.117	-39.2774	19.8657	-173.402	-25.943	71.7392	-194.66	-28.1192	101.072	-201.583	-4.34445	66.7894	
98	0.816667	-210.235	32.5333	73.5977	-196.02	47.9684	48.1894	-176.517	52.7428	16.893	-163.629	60.0189	0.768729	-153.557	13.3504	14.16	-127.426	37.4166	15.0518	-137.893	52.8577	44.5159	-133.399	1.76819	22.7712	-111.854	28.8106	26.7997	-133.187	43.7355	62.034	-119.842	-8.05399	37.0178	-101.381	14.8234	42.5984	-122.894	31.5033	66.5851	-125.811	-26.8023	57.1548	-107.649	-28.7903	36.815	-92.4526	-37.2241	18.2872	-169.863	-26.9077	73.2458	-191.774	-29.8489	102.228	-205.337	-5.12648	69.9064	
99	0.825	-208.14	26.064	71.1002	-197.297	40.8067	44.4314	-183.384	50.3963	15.8783	-170.854	58.9729	-1.79757	-153.185	10.8085	10.7131	-130.669	32.4708	8.29489	-140.869	52.1766	39.7984	-135.296	0.0808397	20.9684	-115.391	32.0389	25.4779	-137.748	44.5874	57.8675	-118.699	-7.73176	34.3171	-105.477	18.6813	36.1538	-127.223	33.8721	61.0314	-127.377	-24.737	57.2598	-108.313	-27.8953	37.6545	-94.1456	-32.4153	18.6618	-168.319	-30.1677	75.3027	-188.926	-30.7293	99.2584	-204.226	-12.8965	70.4071	
100	0.833333	-211.23	23.7182	74.4654	-201.043	37.51	42.0351	-187.547	45.4387	14.149	-177.934	54.8524	-6.24393	-157.721	7.3184	9.0483	-134.658	29.1164	4.70084	-144.075	50.3892	36.7702	-132.986	0.732496	16.3841	-117.499	30.8135	21.0814	-141.995	44.5662	52.3943	-122.622	-9.08403	32.2129	-107.943	18.713	30.7559	-129.785	33.9423	59.3178	-122.206	-27.084	56.3994	-108.685	-28.1421	34.5552	-94.1612	-33.9568	15.5757	-164.982	-30.5697	74.6693	-188.419	-30.637	102.343	-202.606	-13.3186	68.7382	
101	0.841667	-211.369	19.4197	68.0133	-201.312	32.1886	44.2407	-188.698	39.0957	13.0847	-181.443	48.6761	-8.87035	-159.829	4.3982	6.30401	-139.492	27.5207	0.332388	-147.672	48.6408	34.129	-138.913	-2.33423	15.8766	-121.03	31.2872	20.2642	-141.195	40.4864	51.1451	-123.359	-9.70612	27.897	-108.763	20.5644	29.6263	-130.369	33.3147	54.3931	-122.656	-27.2882	54.3863	-110.084	-28.2751	32.9661	-93.1322	-36.2906	12.5616	-164.913	-31.892	74.2641	-181.295	-32.548	100.055	-201.47	-18.4426	65.3274	
102	0.85	-213.51	17.3657	67.4792	-204.806	29.2397	38.9542	-193.193	37.0707	10.6978	-185.461	45.838	-11.9568	-162.288	2.41087	1.34369	-142.967	27.1511	-2.53606	-148.661	45.6383	27.1997	-138.593	-4.93399	11.9918	-126.467	29.1965	11.1991	-144.038	40.2154	46.0328	-123.815	-12.7405	27.4555	-113.035	17.709	22.9074	-130.991	31.7471	50.8775	-125.83	-26.1076	52.2789	-110.556	-30.0398	27.1817	-94.2692	-38.1333	9.64807	-163.002	-32.6814	73.4772	-183.28	-32.4604	98.0173	-199.582	-21.5583	67.3988	
103	0.858333	-211.099	15.6448	69.9268	-206.048	26.8547	41.7734	-199.045	35.4988	8.47597	-192.256	42.4605	-14.5879	-165.451	-3.1236	2.19717	-145.869	22.7901	-5.13	-154.827	44.1015	23.5999	-143.795	-8.05786	8.98832	-127.995	25.6679	8.45928	-144.166	39.4295	38.4003	-129.397	-14.5487	21.596	-116.494	13.3967	15.9343	-134.129	29.847	45.4617	-126.562	-28.9183	47.7482	-113.181	-31.9877	23.4951	-99.4732	-40.7988	3.4921	-163.094	-32.1789	72.2833	-181.281	-33.0581	98.6213	-199.539	-22.1198	68.9531	
104	0.866667	-213.693	15.2641	72.3869	-206.895	24.087	40.4733	-202.698	32.155	6.91981	-198.564	37.9541	-18.0786	-171.628	-6.76707	0.395071	-150.819	18.6333	-7.82518	-157.467	40.5698	21.491	-147.484	-12.3915	7.52633	-132.671	19.9743	1.03902	-149.782	37.0151	35.5972	-130.41	-17.811	16.961	-120.17	7.98253	9.17196	-136.667	28.6208	37.7502	-129.554	-28.174	47.9211	-117.332	-33.5281	21.8846	-104.128	-42.8566	3.02464	-163.299	-35.2468	72.6422	-180.042	-35.3777	105.112	-203.706	-20.6026	71.5182	
105	0.875	-213.673	12.0967	70.754	-210.738	23.1183	41.8313	-204.885	25.5504	8.00564	-205.251	34.5156	-12.0223	-180.118	-10.256	-0.634119	-158.552	9.43656	-12.6354	-163.425	38.5351	14.1947	-158.529	-16.0986	3.20624	-140.153	13.4792	-5.75129	-151.949	35.4995	27.6122	-139.921	-23.306	18.3307	-127.371	6.05459	4.04894	-140.237	26.5956	34.0181	-130.098	-32.5693	43.6733	-121.442	-38.0965	19.891	-115.413	-43.629	-2.42216	-169.34	-34.1802	71.5829	-182.552	-34.0287	103.536	-200.798	-23.776	70.836	
106	0.883333	-219.702	13.1669	70.9786	-217.473	23.1502	42.2484	-213.168	23.2461	6.87338	-212.183	27.8722	-18.756	-184.785	-15.4812	-3.10259	-166.964	6.35732	-17.1115	-167.597	32.5944	8.08125	-161.487	-21.3012	-0.365824	-146.956	8.17377	-9.08234	-154.447	30.5868	25.7597	-145.781	-27.5006	14.9058	-130.806	-2.59754	0.608055	-139.974	21.5627	25.9841	-136.778	-35.9199	36.6985	-124.854	-43.0462	16.4764	-117.782	-51.7053	-8.79067	-167.366	-36.2206	70.6681	-181.144	-33.555	105.001	-207.647	-23.6235	73.8631	
107	0.891667	-219.11	11.9	73.8924	-218.356	16.7197	39.3479	-218.28	19.4471	9.01476	-220.998	23.6639	-16.9328	-195.01	-21.1302	-0.057789	-175.191	-0.938221	-19.1128	-172.212	27.0717	4.71304	-168.187	-25.9547	-0.927942	-154.815	4.94728	-11.9606	-158.496	25.7372	18.5245	-149.431	-31.7265	11.8636	-135.456	-8.65969	-3.78769	-147.911	18.7899	20.3389	-141.102	-39.5147	36.653	-133.642	-44.91	13.6302	-128.536	-53.809	-10.5921	-169.016	-38.8174	71.7606	-180.853	-33.4237	104.996	-209.351	-27.8458	75.0508	
108	0.9	-221.594	9.57601	74.5314	-220.014	13.1167	42.0168	-224.663	14.6887	8.53356	-225.532	18.9817	-14.0649	-200.571	-26.7387	0.479879	-182.539	-7.30734	-20.5365	-181.503	24.6326	0.86522	-176.905	-31.8519	-2.19097	-161.284	-0.631916	-13.995	-167.498	21.9284	16.3846	-154.08	-37.1681	7.96641	-142.796	-14.797	-7.21421	-151.939	13.261	17.2639	-144.203	-43.2519	35.0027	-137.1	-52.6411	9.84862	-137.414	-60.1857	-9.98765	-174.162	-40.7034	71.3743	-182.142	-35.9988	103.101	-208.687	-28.2168	75.6483	
